<svg width="18" height="18" viewBox="0 0 18 18" fill="none" xmlns="http://www.w3.org/2000/svg">
<g id="alert-triangle">
<path id="Icon" d="M9.0003 6.74993V9.74993M9.0003 12.7499H9.0078M7.96179 2.91872L1.79313 13.5737C1.45097 14.1647 1.2799 14.4602 1.30518 14.7027C1.32724 14.9142 1.43806 15.1065 1.61008 15.2315C1.8073 15.3749 2.14875 15.3749 2.83164 15.3749H15.169C15.8519 15.3749 16.1933 15.3749 16.3905 15.2315C16.5625 15.1065 16.6734 14.9142 16.6954 14.7027C16.7207 14.4602 16.5496 14.1647 16.2075 13.5737L10.0388 2.91872C9.69789 2.32985 9.52743 2.03541 9.30503 1.93652C9.11104 1.85026 8.88957 1.85026 8.69558 1.93652C8.47318 2.03541 8.30272 2.32985 7.96179 2.91872Z" stroke="#C6920E" stroke-linecap="round" stroke-linejoin="round"/>
</g>
</svg>
