<svg width="61" height="60" viewBox="0 0 61 60" fill="none" xmlns="http://www.w3.org/2000/svg">
<g id="download (2) 1">
<g id="Vector">
<path d="M58.9436 30.0011C58.9436 41.1259 52.5147 51.0034 42.7836 55.6589C41.2359 56.407 39.6508 56.9876 38.0191 57.4412C37.3391 57.6278 36.6503 57.7878 35.948 57.9212C34.1836 58.2678 32.3658 58.4455 30.5036 58.4455H30.4991C29.8191 58.4455 29.1436 58.4234 28.4769 58.3746C26.6725 58.25 24.9169 57.9523 23.2236 57.5078C22.5169 57.3212 21.8236 57.1079 21.1391 56.8678C19.3576 56.2518 17.6488 55.4495 16.0947 54.5299C7.74457 49.6253 2.05469 40.5086 2.05469 30.0011C2.05469 14.3345 14.7506 1.55664 30.4991 1.55664C46.0983 1.55664 58.9436 14.1902 58.9436 30.0011Z" fill="#32393F"/>
<path d="M58.9436 30.0011C58.9436 41.1259 52.5147 51.0034 42.7836 55.6589C41.2359 56.407 39.6508 56.9876 38.0191 57.4412C37.3391 57.6278 36.6503 57.7878 35.948 57.9212C34.1836 58.2678 32.3658 58.4455 30.5036 58.4455H30.4991C29.8191 58.4455 29.1436 58.4234 28.4769 58.3746C26.6725 58.25 24.9169 57.9523 23.2236 57.5078C22.5169 57.3212 21.8236 57.1079 21.1391 56.8678C19.3576 56.2518 17.6488 55.4495 16.0947 54.5299C7.74457 49.6253 2.05469 40.5086 2.05469 30.0011C2.05469 14.3345 14.7506 1.55664 30.4991 1.55664C46.0983 1.55664 58.9436 14.1902 58.9436 30.0011Z" fill="white" fill-opacity="0.08"/>
</g>
<path id="Vector_2" d="M45.1998 31.4115C45.1998 32.5683 38.1554 33.5229 29.4867 33.5229C20.8181 33.5229 13.7939 32.5683 13.7939 31.4115C13.7939 30.2339 20.8181 29.2803 29.4867 29.2803C38.1554 29.2803 45.1998 30.2339 45.1998 31.4115Z" fill="url(#paint0_linear_209_39559)"/>
<path id="Vector_3" d="M44.6274 31.4063C43.7415 32.0948 38.1471 33.0161 29.4897 33.0161C26.8419 33.0161 24.4826 32.9301 22.4575 32.7885C17.8605 32.4745 14.9798 31.8822 14.3672 31.4063C15.238 30.7176 20.8222 29.7861 29.4897 29.7861C30.5023 29.7861 31.4743 29.8015 32.3958 29.8217C39.4027 29.9987 43.8579 30.7987 44.6274 31.4063Z" fill="url(#paint1_linear_209_39559)"/>
<path id="Vector_4" d="M44.627 31.4059C43.741 32.0944 38.1466 33.0157 29.4892 33.0157C26.8414 33.0157 24.4821 32.9297 22.457 32.788C24.7859 31.7552 27.8894 30.7374 31.6561 29.9679C31.9042 29.9174 32.1523 29.8668 32.3953 29.8213C39.4022 29.9983 43.8574 30.7982 44.627 31.4059Z" fill="url(#paint2_linear_209_39559)"/>
<path id="Vector_5" d="M45.2811 31.52L42.7833 55.6575C41.2357 56.4057 39.6506 56.9863 38.0189 57.4399C37.3389 57.6265 36.65 57.7864 35.9478 57.9199C34.1833 58.2665 32.3655 58.4442 30.5033 58.4442H30.4989C29.8189 58.4442 29.1433 58.4221 28.4767 58.3733C26.6722 58.2487 24.9167 57.9509 23.2233 57.5065C22.5166 57.3199 21.8233 57.1065 21.1389 56.8665C19.3573 56.2505 17.6486 55.4482 16.0944 54.5286L13.7211 31.52C13.7122 31.4755 13.7478 31.4266 13.7922 31.4175C13.8411 31.4132 13.8855 31.4353 13.9078 31.4755C14.2678 32.4175 20.3255 33.4175 29.4856 33.4175C38.6678 33.4175 44.7344 32.4175 45.0855 31.4755C45.1122 31.4353 45.1522 31.4132 45.2011 31.4175H45.2056C45.2544 31.4266 45.2811 31.4755 45.2811 31.52Z" fill="url(#paint3_linear_209_39559)"/>
<path id="Vector_6" d="M23.224 57.5083C22.5174 57.3217 21.824 57.1083 21.1396 56.8683L19.7129 40.5261C19.664 39.9705 20.0774 39.4773 20.6329 39.4284C21.1885 39.375 21.6818 39.7928 21.7307 40.3483L23.224 57.5083Z" fill="white"/>
<path id="Vector_7" d="M39.4993 40.5261L38.0193 57.4417C37.3394 57.6283 36.6505 57.7882 35.9482 57.9217L37.4816 40.3483C37.5305 39.7928 38.0238 39.375 38.5793 39.4284C39.1349 39.4773 39.5482 39.9705 39.4993 40.5261Z" fill="white"/>
<path id="Vector_8" d="M30.5042 40.4371V58.446H30.4998C29.8198 58.446 29.1442 58.4238 28.4775 58.375V40.4371C28.4775 39.8772 28.9309 39.4238 29.4909 39.4238C30.0509 39.4238 30.5042 39.8772 30.5042 40.4371Z" fill="white"/>
<path id="Vector_9" d="M53.9409 31.62C53.9409 31.7474 53.8367 31.8516 53.7093 31.8516C52.7667 31.8516 52.0001 32.6182 52.0001 33.5608C52.0001 33.6882 51.8959 33.7924 51.7685 33.7924C51.6412 33.7924 51.5369 33.6882 51.5369 33.5608C51.5369 32.6182 50.7703 31.8516 49.8277 31.8516C49.7003 31.8516 49.5961 31.7474 49.5961 31.62C49.5961 31.4926 49.7003 31.3884 49.8277 31.3884C50.7703 31.3884 51.5369 30.6218 51.5369 29.6792C51.5369 29.5518 51.6412 29.4476 51.7685 29.4476C51.8959 29.4476 52.0001 29.5518 52.0001 29.6792C52.0001 30.6218 52.7667 31.3884 53.7093 31.3884C53.8367 31.3884 53.9409 31.4926 53.9409 31.62ZM10.8736 34.6088C10.8736 34.7345 10.7707 34.8373 10.645 34.8373C9.71483 34.8373 8.95832 35.5938 8.95832 36.524C8.95832 36.6497 8.85547 36.7526 8.72977 36.7526C8.60406 36.7526 8.50121 36.6497 8.50121 36.524C8.50121 35.5938 7.7447 34.8373 6.81449 34.8373C6.68879 34.8373 6.58594 34.7345 6.58594 34.6088C6.58594 34.4831 6.68879 34.3802 6.81449 34.3802C7.7447 34.3802 8.50121 33.6237 8.50121 32.6935C8.50121 32.5678 8.60406 32.4649 8.72977 32.4649C8.85547 32.4649 8.95832 32.5678 8.95832 32.6935C8.95832 33.6237 9.71483 34.3802 10.645 34.3802C10.7707 34.3802 10.8736 34.4831 10.8736 34.6088ZM40.8675 6.20227C40.8675 6.28227 40.802 6.34773 40.722 6.34773C40.13 6.34773 39.6486 6.82919 39.6486 7.4212C39.6486 7.5012 39.5831 7.56665 39.5031 7.56665C39.4231 7.56665 39.3577 7.5012 39.3577 7.4212C39.3577 6.82919 38.8762 6.34773 38.2842 6.34773C38.2042 6.34773 38.1387 6.28227 38.1387 6.20227C38.1387 6.12227 38.2042 6.05682 38.2842 6.05682C38.8762 6.05682 39.3577 5.57536 39.3577 4.98335C39.3577 4.90335 39.4231 4.83789 39.5031 4.83789C39.5831 4.83789 39.6486 4.90335 39.6486 4.98335C39.6486 5.57536 40.13 6.05682 40.722 6.05682C40.802 6.05682 40.8675 6.12227 40.8675 6.20227ZM18.8446 6.91637C18.8446 6.97721 18.7949 7.02698 18.734 7.02698C18.2839 7.02698 17.9177 7.39309 17.9177 7.84326C17.9177 7.9041 17.868 7.95387 17.8071 7.95387C17.7463 7.95387 17.6965 7.9041 17.6965 7.84326C17.6965 7.39309 17.3304 7.02698 16.8802 7.02698C16.8194 7.02698 16.7696 6.97721 16.7696 6.91637C16.7696 6.85554 16.8194 6.80577 16.8802 6.80577C17.3304 6.80577 17.6965 6.43966 17.6965 5.98949C17.6965 5.92865 17.7463 5.87888 17.8071 5.87888C17.868 5.87888 17.9177 5.92865 17.9177 5.98949C17.9177 6.43966 18.2839 6.80577 18.734 6.80577C18.7949 6.80577 18.8446 6.85554 18.8446 6.91637Z" fill="#F1F3F9"/>
<path id="Vector_10" d="M21.4131 19.1888C18.6318 21.4829 8.65752 28.6489 6.37262 25.856C5.37548 24.6322 6.7077 22.1937 8.00549 20.3781C9.79592 17.8731 12.5755 15.021 15.8108 12.3638C19.0461 9.70677 22.3826 7.53134 25.1791 6.26606C27.2375 5.33371 29.8795 4.47951 30.8861 5.72001C32.456 7.61045 28.2936 13.5332 21.4131 19.1888Z" fill="url(#paint4_linear_209_39559)"/>
<path id="Vector_11" d="M23.2809 21.3359C20.3965 23.7062 13.183 28.9514 9.4712 28.5762C8.92048 28.5248 8.5103 28.3273 8.25749 27.9988L6.43607 25.9291C6.39592 25.9022 6.38897 25.89 6.37109 25.8585C8.65983 28.6394 18.6086 21.4992 21.4133 19.1849C28.2923 13.5302 32.4528 7.60731 30.8828 5.71777L32.7432 7.85625C32.7504 7.86878 32.7504 7.86878 32.7504 7.86878C35.0638 10.633 26.0797 19.0407 23.2809 21.3359Z" fill="url(#paint5_linear_209_39559)"/>
<path id="Vector_12" d="M15.4798 17.4746C14.3205 16.1958 14.4173 14.2118 15.696 13.0521C16.973 11.8932 18.9523 11.9858 20.117 13.2702C20.2815 13.452 20.268 13.7333 20.0862 13.898C19.9047 14.0629 19.6231 14.0491 19.4581 13.8674C18.6248 12.9473 17.2076 12.8818 16.2932 13.7105C15.3774 14.541 15.308 15.9616 16.1387 16.8774C16.3032 17.0593 16.2897 17.3403 16.1079 17.5052C15.9278 17.6688 15.6471 17.6579 15.4798 17.4746Z" fill="#C6CDDC"/>
<g id="Group">
<path id="Vector_13" d="M41.1562 24.2055C41.3352 24.1826 41.494 24.3271 41.4791 24.507C41.3379 26.2177 40.8772 27.7914 40.0078 28.7909L40.0068 28.7919C39.5915 29.2689 39.0834 29.6155 38.4721 29.7836C36.7504 30.2569 30.416 30.6143 30.416 30.6143C34.1333 29.4197 35.1711 25.2813 35.3962 24.0881C35.4283 23.9178 35.6011 23.8189 35.7662 23.8716C37.3546 24.3788 39.1671 24.46 41.1562 24.2055Z" fill="url(#paint6_linear_209_39559)"/>
<path id="Vector_14" d="M40.0068 28.7928C39.5915 29.2699 39.0834 29.6165 38.4721 29.7846C36.7504 30.2579 30.416 30.6153 30.416 30.6153C32.6551 29.9586 34.5614 29.2256 35.7847 28.3358C35.8876 28.2609 36.0249 28.2629 36.1238 28.3431C36.7029 28.8125 38.687 30.2282 40.0068 28.7928Z" fill="#21C4C1"/>
</g>
<g id="Group_2">
<path id="Vector_15" d="M49.1664 16.052C49.2661 15.9074 49.4739 15.8863 49.5945 16.0139C50.7418 17.2279 51.5822 18.5843 51.7412 19.8635L51.7413 19.8648C51.8168 20.4757 51.7377 21.0689 51.4622 21.6209C50.6862 23.1755 46.8287 27.9957 46.8287 27.9957C48.3791 24.527 46.0561 21.0859 45.3382 20.1475C45.2357 20.0135 45.2763 19.8242 45.4219 19.7388C46.8214 18.918 48.0581 17.658 49.1664 16.052Z" fill="#21C4C1"/>
<path id="Vector_16" d="M51.7417 19.8652C51.8173 20.4761 51.7381 21.0693 51.4627 21.6213C50.6866 23.1759 46.8291 27.9961 46.8291 27.9961C47.8085 25.9475 48.5164 24.0906 48.6669 22.6263C48.6796 22.5031 48.7703 22.4049 48.8926 22.3854C49.6089 22.271 51.9237 21.754 51.7417 19.8652Z" fill="url(#paint7_linear_209_39559)"/>
</g>
<g id="Group_3">
<path id="Vector_17" d="M40.9493 17.2058C40.9807 17.3666 40.8593 17.5192 40.6954 17.5166C39.1365 17.4911 37.6825 17.1678 36.7245 16.4397L36.7236 16.4389C36.2663 16.091 35.9217 15.6513 35.7327 15.1073C35.2006 13.5752 34.4971 7.85547 34.4971 7.85547C35.8026 11.153 39.6156 11.8457 40.7105 11.9782C40.8669 11.9971 40.9668 12.1478 40.9289 12.3006C40.5644 13.7706 40.5994 15.4183 40.9493 17.2058Z" fill="#21C4C1"/>
<path id="Vector_18" d="M36.7236 16.4389C36.2663 16.091 35.9217 15.6513 35.7327 15.1073C35.2006 13.5752 34.4971 7.85547 34.4971 7.85547C35.2265 9.84555 36.005 11.5293 36.8848 12.5848C36.9588 12.6736 36.9653 12.7981 36.8985 12.8926C36.5078 13.4455 35.3435 15.3287 36.7236 16.4389Z" fill="url(#paint8_linear_209_39559)"/>
</g>
</g>
<defs>
<linearGradient id="paint0_linear_209_39559" x1="13.794" y1="31.4015" x2="45.1998" y2="31.4015" gradientUnits="userSpaceOnUse">
<stop stop-color="#D6DCE8"/>
<stop offset="1" stop-color="#F1F3F9"/>
</linearGradient>
<linearGradient id="paint1_linear_209_39559" x1="14.367" y1="31.4011" x2="44.6275" y2="31.4011" gradientUnits="userSpaceOnUse">
<stop stop-color="#AAB2C5"/>
<stop offset="1" stop-color="#D6DCE8"/>
</linearGradient>
<linearGradient id="paint2_linear_209_39559" x1="22.4572" y1="31.4184" x2="44.627" y2="31.4184" gradientUnits="userSpaceOnUse">
<stop stop-color="#989FB0"/>
<stop offset="1" stop-color="#AAB2C5"/>
</linearGradient>
<linearGradient id="paint3_linear_209_39559" x1="13.7196" y1="44.9305" x2="45.281" y2="44.9305" gradientUnits="userSpaceOnUse">
<stop stop-color="#AAB2C5"/>
<stop offset="1" stop-color="#D6DCE8"/>
</linearGradient>
<linearGradient id="paint4_linear_209_39559" x1="18.6206" y1="5.10059" x2="18.6206" y2="26.4925" gradientUnits="userSpaceOnUse">
<stop stop-color="#492FB5"/>
<stop offset="1" stop-color="#7D63EC"/>
</linearGradient>
<linearGradient id="paint5_linear_209_39559" x1="19.7491" y1="5.71777" x2="19.7491" y2="28.5953" gradientUnits="userSpaceOnUse">
<stop stop-color="#7C65DB"/>
<stop offset="1" stop-color="#8770EA"/>
</linearGradient>
<linearGradient id="paint6_linear_209_39559" x1="35.7674" y1="20.8099" x2="29.9526" y2="30.3313" gradientUnits="userSpaceOnUse">
<stop stop-color="#CDD2FD"/>
<stop offset="1" stop-color="#6979F8"/>
</linearGradient>
<linearGradient id="paint7_linear_209_39559" x1="49.2183" y1="16.198" x2="42.2379" y2="20.4388" gradientUnits="userSpaceOnUse">
<stop stop-color="#CDD2FD"/>
<stop offset="1" stop-color="#6979F8"/>
</linearGradient>
<linearGradient id="paint8_linear_209_39559" x1="35.6809" y1="3.98413" x2="31.3016" y2="5.23294" gradientUnits="userSpaceOnUse">
<stop stop-color="#CDD2FD"/>
<stop offset="1" stop-color="#6979F8"/>
</linearGradient>
</defs>
</svg>
