<svg width="19" height="18" viewBox="0 0 19 18" fill="none" xmlns="http://www.w3.org/2000/svg">
<g id="filter-funnel-02">
<path id="Icon" d="M3.2567 4.25015C2.68945 3.61616 2.40582 3.29917 2.39512 3.02976C2.38583 2.79573 2.4864 2.57079 2.66701 2.42167C2.87491 2.25 3.30027 2.25 4.151 2.25H15.2832C16.1339 2.25 16.5593 2.25 16.7672 2.42167C16.9478 2.57079 17.0484 2.79573 17.0391 3.02976C17.0284 3.29917 16.7447 3.61616 16.1775 4.25015L11.8978 9.03332C11.7847 9.1597 11.7282 9.22289 11.6879 9.29481C11.6521 9.35859 11.6259 9.42726 11.61 9.49863C11.5921 9.57911 11.5921 9.6639 11.5921 9.83348V13.8438C11.5921 13.9905 11.5921 14.0638 11.5684 14.1272C11.5475 14.1832 11.5135 14.2334 11.4693 14.2736C11.4192 14.3192 11.3511 14.3464 11.2149 14.4009L8.66493 15.4209C8.38927 15.5311 8.25144 15.5863 8.1408 15.5633C8.04404 15.5432 7.95914 15.4857 7.90453 15.4033C7.84209 15.3091 7.84209 15.1607 7.84209 14.8638V9.83348C7.84209 9.6639 7.84209 9.57911 7.82419 9.49863C7.8083 9.42726 7.78207 9.35859 7.74631 9.29481C7.706 9.22289 7.64946 9.1597 7.53638 9.03332L3.2567 4.25015Z" stroke="#2A2F35" stroke-linecap="round" stroke-linejoin="round"/>
</g>
</svg>
