<svg width="28" height="28" viewBox="0 0 28 28" fill="none" xmlns="http://www.w3.org/2000/svg">
<g id="Property 1=Radio Buttons ON, Size=big">
<path id="&#240;&#159;&#147;&#141;Icon" fill-rule="evenodd" clip-rule="evenodd" d="M13.9997 2.33325C7.55967 2.33325 2.33301 7.55992 2.33301 13.9999C2.33301 20.4399 7.55967 25.6666 13.9997 25.6666C20.4397 25.6666 25.6663 20.4399 25.6663 13.9999C25.6663 7.55992 20.4397 2.33325 13.9997 2.33325ZM13.9993 23.3332C8.84268 23.3332 4.66602 19.1565 4.66602 13.9998C4.66602 8.84317 8.84268 4.6665 13.9993 4.6665C19.156 4.6665 23.3327 8.84317 23.3327 13.9998C23.3327 19.1565 19.156 23.3332 13.9993 23.3332ZM19.8327 13.9998C19.8327 17.2215 17.221 19.8332 13.9993 19.8332C10.7777 19.8332 8.16602 17.2215 8.16602 13.9998C8.16602 10.7782 10.7777 8.1665 13.9993 8.1665C17.221 8.1665 19.8327 10.7782 19.8327 13.9998Z" fill="#004C70"/>
</g>
</svg>
