<svg width="28" height="28" viewBox="0 0 28 28" fill="none" xmlns="http://www.w3.org/2000/svg">
<g id="Radio Button">
<path id="&#240;&#159;&#147;&#141;Icon" fill-rule="evenodd" clip-rule="evenodd" d="M14 2C7.376 2 2 7.376 2 14C2 20.624 7.376 26 14 26C20.624 26 26 20.624 26 14C26 7.376 20.624 2 14 2ZM13.9994 23.5999C8.69541 23.5999 4.39941 19.3039 4.39941 13.9999C4.39941 8.6959 8.69541 4.3999 13.9994 4.3999C19.3034 4.3999 23.5994 8.6959 23.5994 13.9999C23.5994 19.3039 19.3034 23.5999 13.9994 23.5999ZM20 14C20 17.3137 17.3137 20 14 20C10.6863 20 8 17.3137 8 14C8 10.6863 10.6863 8 14 8C17.3137 8 20 10.6863 20 14Z" fill="#70CEEA"/>
</g>
</svg>
