<svg width="20" height="20" viewBox="0 0 20 20" fill="none" xmlns="http://www.w3.org/2000/svg">
<g id="Radio Button">
<path id="&#240;&#159;&#147;&#141;Icon" fill-rule="evenodd" clip-rule="evenodd" d="M10.0003 1.66699C5.40033 1.66699 1.66699 5.40033 1.66699 10.0003C1.66699 14.6003 5.40033 18.3337 10.0003 18.3337C14.6003 18.3337 18.3337 14.6003 18.3337 10.0003C18.3337 5.40033 14.6003 1.66699 10.0003 1.66699ZM10.0003 16.667C6.31699 16.667 3.33366 13.6837 3.33366 10.0003C3.33366 6.31699 6.31699 3.33366 10.0003 3.33366C13.6837 3.33366 16.667 6.31699 16.667 10.0003C16.667 13.6837 13.6837 16.667 10.0003 16.667ZM14.167 10.0003C14.167 12.3015 12.3015 14.167 10.0003 14.167C7.69914 14.167 5.83366 12.3015 5.83366 10.0003C5.83366 7.69914 7.69914 5.83366 10.0003 5.83366C12.3015 5.83366 14.167 7.69914 14.167 10.0003Z" fill="#70CEEA"/>
</g>
</svg>
